<?xml version="1.0" encoding="UTF-8"?>
<svg xmlns="http://www.w3.org/2000/svg" xmlns:xlink="http://www.w3.org/1999/xlink" width="32pt" height="32pt" viewBox="0 0 32 32" version="1.1">
<g id="surface16184469">
<path style=" stroke:none;fill-rule:nonzero;fill:rgb(100%,100%,100%);fill-opacity:1;" d="M 25.847656 0 C 22.445312 0 19.691406 2.753906 19.691406 6.152344 C 19.691406 6.257812 19.726562 6.355469 19.730469 6.460938 L 10.078125 11.308594 C 9.007812 10.410156 7.660156 9.847656 6.152344 9.847656 C 2.753906 9.847656 0 12.601562 0 16 C 0 19.398438 2.753906 22.152344 6.152344 22.152344 C 7.660156 22.152344 9.007812 21.589844 10.078125 20.691406 L 19.730469 25.539062 C 19.726562 25.644531 19.691406 25.742188 19.691406 25.847656 C 19.691406 29.246094 22.445312 32 25.847656 32 C 29.246094 32 32 29.246094 32 25.847656 C 32 22.445312 29.246094 19.691406 25.847656 19.691406 C 24.339844 19.691406 22.992188 20.253906 21.921875 21.152344 L 12.269531 16.308594 C 12.273438 16.203125 12.308594 16.105469 12.308594 16 C 12.308594 15.894531 12.273438 15.796875 12.269531 15.691406 L 21.921875 10.847656 C 22.992188 11.746094 24.339844 12.308594 25.847656 12.308594 C 29.246094 12.308594 32 9.554688 32 6.152344 C 32 2.753906 29.246094 0 25.847656 0 Z M 25.847656 0 "/>
</g>
</svg>
